PathFileType	4	(X/Y/Z)	OpenSim_Sub08_EMGBaseline_Accel.trc
DataRate	CameraRate	NumFrames	NumMarkers	Units	OrigDataRate	OrigDataStartFrame	OrigNumFrames
100	100	27	8	m	100	5823	6654
Frame#	Time	torso_imu_offset_imu	pelvis_imu_offset_imu	tibia_r_imu_offset_imu	femur_r_imu_offset_imu	tibia_l_imu_offset_imu	femur_l_imu_offset_imu	toes_r_imu_offset_imu	toes_l_imu_offset_imu
				X1	Y1	Z1	X2	Y2	Z2	X3	Y3	Z3	X4	Y4	Z4	X5	Y5	Z5	X6	Y6	Z6	X7	Y7	Z7	X8		Y8	Z8	

5823	58.22000000	9.70411307	0.76547665	6.09013862	9.71099841	-1.43564116	5.80953663	6.14597395	8.20602155	-0.60395766	11.04974473	-1.40764684	2.32186204	9.31433729	-1.20446340	-2.69767935	8.56814351	-0.38698245	-2.01340304	27.57533695	5.09400466	22.16916011	5.46698177	2.00133752	11.12716256
5824	58.23000000	9.37742110	0.51772856	6.18734308	9.12205774	0.18823743	5.36496245	4.83014847	11.27083272	-0.86828829	11.32327137	-2.26121567	2.54625048	9.39759824	0.30487963	-2.54113051	8.23350114	-1.96290321	-1.59103882	10.10362580	-12.41149308	11.27469630	5.34118574	2.05345428	10.85144212
5825	58.24000000	9.45072658	0.20830469	6.29548202	9.12909695	1.51031593	5.16245087	3.54429341	14.18247956	-2.21018658	11.94135961	-2.67174291	2.74827617	9.43621457	0.65916716	-2.01726616	8.47301392	-2.60073254	-1.42382776	3.81144015	-16.91131855	6.65917105	5.26202450	1.55901251	11.32985625
5826	58.25000000	10.11909402	-0.03950965	6.33227254	9.34452112	2.30038258	5.07580922	3.86255275	15.45884633	-0.72446855	12.35175829	-2.91509021	2.90820639	10.10650356	-0.72965249	-1.86843705	9.27796019	-2.50252086	-1.30679521	1.25578905	-15.37383767	5.16920670	5.28687261	0.57399885	11.17079147
5827	58.26000000	10.71642053	-0.31013479	6.47275513	9.61390052	2.38796175	5.12612050	5.12772117	13.76294950	1.11816053	12.24127825	-3.40813789	2.95011860	10.55732113	-2.77225223	-1.19969336	10.44279943	-2.07497759	-1.35405869	1.21783836	-8.49894317	6.20318843	6.76858033	0.06703245	10.29711867
5828	58.27000000	10.71403999	-0.49100975	6.60049637	9.84447804	1.71702024	5.19912605	5.35959414	10.84694349	1.23643951	11.78847411	-4.16379226	2.80052318	10.50988738	-4.40258977	-0.52691001	11.11776653	-1.63837278	-1.66290848	1.17537855	-4.70056432	6.69937314	6.54344095	-0.75699863	10.67026512
5829	58.28000000	10.32580695	-0.50355167	6.53469987	9.94095144	0.56838287	5.15308678	4.54150740	8.36597516	1.19638081	11.33103573	-4.77620349	2.49319563	10.75029019	-4.55188719	-0.26212542	10.82884399	-1.01810728	-2.18670805	1.43947346	-0.64458605	7.73227130	6.04211686	-1.08820530	10.63346674
5830	58.29000000	10.03712834	-0.44530228	6.42774220	9.82941954	-0.67872111	5.07293680	3.54671126	6.62524917	1.49919917	10.94147182	-4.95048962	2.13027542	10.52255546	-2.92313881	0.01932443	10.25296252	-0.38632842	-2.52383515	0.92945882	0.23249225	7.86818554	5.83248378	-0.24693065	11.00532290
5831	58.30000000	9.58477249	-0.39843895	6.38226484	9.51719968	-1.59390377	4.87166915	2.96473847	5.19007049	1.68700453	10.67630440	-4.69324861	1.70284467	10.12464557	-1.02272742	0.11845306	9.74718579	-0.08564692	-2.40130910	1.03600445	-1.13955405	7.47596362	5.69170089	0.14865700	10.88182863
5832	58.31000000	9.08193378	-0.35472295	6.28649983	9.16072675	-2.05869134	4.54471741	2.87970528	4.02073870	2.00134383	10.28946836	-4.11089488	1.33597905	10.15071350	0.31310050	-0.33330661	9.50906863	-0.08973389	-1.99491558	1.74115613	-2.06127956	7.60704714	5.05535991	0.37155379	11.02223720
5833	58.32000000	8.60038977	-0.30172141	6.14165818	8.78713846	-2.04771347	4.32945707	2.71945674	2.58783029	2.05092726	9.72461413	-3.54657284	1.14056146	10.08794256	0.56900545	-0.68808453	9.58025276	-0.26004286	-1.43754042	2.35796267	-2.90690301	7.64729442	5.50741926	1.04575187	10.89243336
5834	58.33000000	8.22180060	-0.25236199	6.05437524	8.47102646	-1.64548738	4.10316220	2.49291995	0.49458986	1.84418933	9.17537901	-3.03563716	1.06561648	9.70810998	0.17761399	-0.90112980	9.55217199	-0.46286170	-1.10120027	2.66095797	-2.06357399	7.82146372	5.98706932	0.95957612	10.53637424
5835	58.34000000	7.93124202	-0.27548187	5.93026220	8.14459791	-0.98068036	3.95680500	2.74316193	-1.62541937	2.30891565	8.69045809	-2.52357453	1.17237106	9.60149478	-0.49127191	-1.14057262	9.18348949	-0.70896495	-1.23300674	2.79665547	-0.29231187	7.58136390	5.82640178	0.95806284	10.54727036
5836	58.35000000	7.68726931	-0.34649957	5.87129588	7.92140156	-0.32285360	3.87241656	3.83732158	-2.98761533	3.34834579	8.36294878	-2.09156473	1.28628779	9.49575075	-0.69884386	-0.78808884	8.85448781	-0.57847220	-1.60299232	2.87493696	1.42284906	6.99323759	5.41012864	1.04817698	10.87998926
5837	58.36000000	7.62449398	-0.36526349	5.83889755	7.83279788	0.18462019	3.82888375	5.12026843	-2.85213488	3.92810959	8.11218555	-1.79436362	1.37289570	9.26979915	-0.40107814	-0.48271998	8.73934794	0.00210672	-1.97923043	2.61982266	2.18102077	6.22447448	5.73688545	1.03831819	10.63794244
5838	58.37000000	7.65252164	-0.34967480	5.77333028	7.75173565	0.43818497	3.84367649	6.05319250	-1.02195948	3.29773139	7.76433252	-1.68160082	1.58881016	9.12232698	-0.02803286	-0.34664144	8.80753598	0.72293351	-2.35814434	3.16309946	2.03663983	6.64431075	5.85557071	1.02369873	10.58214422
5839	58.38000000	7.60837698	-0.39173649	5.76216561	7.73368206	0.29304834	3.79597778	6.92535413	2.69595315	1.51600586	7.29572166	-1.61596262	1.90864112	9.22892501	-0.14637815	-0.12323382	8.97855442	1.38518560	-2.53471158	4.43141415	1.36759398	8.52942570	5.78549312	0.98874862	10.66441230
5840	58.39000000	7.56433617	-0.40245074	5.74318918	7.79420264	-0.19317161	3.71136482	8.53809444	8.53045678	-0.73940948	6.75370252	-1.58307290	2.25822273	9.28683528	-0.38056618	0.07576504	9.16057205	1.92515198	-2.35750575	5.77301689	1.43013945	10.41259951	5.69687604	0.91181145	10.75049273
5841	58.40000000	7.48403798	-0.39583065	5.67838030	7.84001737	-1.00354613	3.53949649	11.18411156	14.95606663	-1.70879583	6.30796402	-1.28646296	2.49072507	8.99940236	-0.43393196	0.13123345	9.16647558	2.07080309	-1.85588143	7.17136454	3.16022618	11.49276197	5.54597027	0.90962627	10.81510132
5842	58.41000000	7.36881269	-0.34719597	5.65361404	7.96139868	-1.83950569	3.32318889	12.44757356	17.30920773	-1.14907809	6.11540638	-0.80485438	2.47117472	8.89976208	-0.23698713	-0.04472891	9.23386219	1.58041272	-1.28623841	8.53848581	4.76289609	11.92284953	6.01913028	0.89816978	10.55247613
5843	58.42000000	7.45163000	-0.22694947	5.71651502	8.03455611	-2.33801349	3.17463955	10.58920256	14.31868966	0.37509207	6.24971226	-0.53214936	2.33998317	9.15808093	-0.22239790	-0.40186413	9.28128024	1.01537620	-0.91633225	10.98191877	5.08114517	12.58186243	6.00555426	0.94720876	10.47177841
5844	58.43000000	7.82407177	-0.12897048	5.65607365	8.16044191	-2.40898580	3.08860675	7.89165431	9.51720585	2.07215016	6.66290358	-0.27167211	2.18493026	9.26096108	-0.69962524	-0.58189179	9.25680836	0.52653793	-0.81035627	13.55369605	4.35806018	13.04440949	5.83238652	1.01203616	10.51748958
5845	58.44000000	8.18984285	-0.06751416	5.62220854	8.30939705	-1.94775979	3.05424440	6.11244828	5.00087396	2.22529135	7.16368495	-0.05524992	2.15542472	9.31397003	-1.44696417	-0.60341085	9.30023837	0.28761949	-0.97429542	14.05749432	3.72618679	12.50590285	5.19037356	1.21583176	10.89484870
5846	58.45000000	8.43978699	-0.11421859	5.81359395	8.42038237	-1.15644282	3.02328535	5.40458308	1.99982831	0.76733516	7.64913951	0.10967175	2.24262430	9.47137608	-2.17760324	-0.72289956	9.48534023	0.39034268	-1.27390856	13.42905069	3.36918506	11.71311674	5.55383474	1.12338284	10.80810427
5847	58.46000000	8.64933858	-0.12802783	5.77560244	8.56092200	-0.37895241	2.94766372	6.96017526	1.14267973	-0.55908441	8.02906461	0.08848723	2.40560487	9.49824707	-2.37953325	-0.52488279	9.63838279	0.65731495	-1.63968957	14.55686959	2.55318489	11.62691206	5.84221657	0.64987883	10.67188458
5848	58.47000000	8.78843036	-0.10967161	5.82547443	8.73005914	0.25774466	2.88772602	10.71400528	1.85303069	-0.82986343	8.29955051	-0.11448519	2.57928123	9.65509361	-2.65445668	-0.43734792	9.64842627	0.96092833	-1.92105265	15.60595327	0.89550854	11.39497062	5.79940008	0.33683507	10.59040732
5849	58.48000000	8.91334759	-0.19310787	6.06751471	8.95887829	0.68053255	2.79400519	14.05953511	3.09620575	-0.72714264	8.50393733	-0.51036244	2.78282204	9.69015738	-2.90955565	-0.37426199	9.71710490	1.36595667	-2.05257539	15.45754416	-0.81650676	10.37199392	5.59196301	0.26663283	10.79815228
